<svg xmlns="http://www.w3.org/2000/svg" version="1.1" xmlns:xlink="http://www.w3.org/1999/xlink" xmlns:svgjs="http://svgjs.dev/svgjs" width="1440" height="560" preserveAspectRatio="none" viewBox="0 0 1440 560"><g mask="url(&quot;#SvgjsMask1003&quot;)" fill="none"><rect width="1440" height="560" x="0" y="0" fill="#0e2a47"></rect><path d="M593 251L592 460" stroke-width="6" stroke="url(&quot;#SvgjsLinearGradient1004&quot;)" stroke-linecap="round" class="Down"></path><path d="M987 123L986 -249" stroke-width="8" stroke="url(&quot;#SvgjsLinearGradient1005&quot;)" stroke-linecap="round" class="Down"></path><path d="M788 106L787 321" stroke-width="8" stroke="url(&quot;#SvgjsLinearGradient1006&quot;)" stroke-linecap="round" class="Up"></path><path d="M448 381L447 -37" stroke-width="6" stroke="url(&quot;#SvgjsLinearGradient1007&quot;)" stroke-linecap="round" class="Up"></path><path d="M1152 222L1151 638" stroke-width="10" stroke="url(&quot;#SvgjsLinearGradient1005&quot;)" stroke-linecap="round" class="Down"></path><path d="M745 107L744 304" stroke-width="8" stroke="url(&quot;#SvgjsLinearGradient1005&quot;)" stroke-linecap="round" class="Down"></path><path d="M78 554L77 147" stroke-width="6" stroke="url(&quot;#SvgjsLinearGradient1005&quot;)" stroke-linecap="round" class="Down"></path><path d="M627 244L626 654" stroke-width="10" stroke="url(&quot;#SvgjsLinearGradient1005&quot;)" stroke-linecap="round" class="Down"></path><path d="M776 415L775 794" stroke-width="6" stroke="url(&quot;#SvgjsLinearGradient1005&quot;)" stroke-linecap="round" class="Down"></path><path d="M365 259L364 -71" stroke-width="8" stroke="url(&quot;#SvgjsLinearGradient1005&quot;)" stroke-linecap="round" class="Down"></path><path d="M166 95L165 273" stroke-width="10" stroke="url(&quot;#SvgjsLinearGradient1007&quot;)" stroke-linecap="round" class="Up"></path><path d="M251 423L250 213" stroke-width="6" stroke="url(&quot;#SvgjsLinearGradient1007&quot;)" stroke-linecap="round" class="Up"></path><path d="M1250 73L1249 460" stroke-width="10" stroke="url(&quot;#SvgjsLinearGradient1005&quot;)" stroke-linecap="round" class="Down"></path><path d="M33 3L32 -388" stroke-width="6" stroke="url(&quot;#SvgjsLinearGradient1004&quot;)" stroke-linecap="round" class="Down"></path><path d="M585 304L584 696" stroke-width="10" stroke="url(&quot;#SvgjsLinearGradient1004&quot;)" stroke-linecap="round" class="Down"></path><path d="M635 36L634 307" stroke-width="10" stroke="url(&quot;#SvgjsLinearGradient1007&quot;)" stroke-linecap="round" class="Up"></path><path d="M1019 198L1018 427" stroke-width="6" stroke="url(&quot;#SvgjsLinearGradient1007&quot;)" stroke-linecap="round" class="Up"></path><path d="M1392 136L1391 -220" stroke-width="6" stroke="url(&quot;#SvgjsLinearGradient1004&quot;)" stroke-linecap="round" class="Down"></path><path d="M202 476L201 137" stroke-width="6" stroke="url(&quot;#SvgjsLinearGradient1007&quot;)" stroke-linecap="round" class="Up"></path><path d="M821 266L820 440" stroke-width="8" stroke="url(&quot;#SvgjsLinearGradient1004&quot;)" stroke-linecap="round" class="Down"></path><path d="M1301 171L1300 -40" stroke-width="10" stroke="url(&quot;#SvgjsLinearGradient1005&quot;)" stroke-linecap="round" class="Down"></path><path d="M354 328L353 58" stroke-width="8" stroke="url(&quot;#SvgjsLinearGradient1004&quot;)" stroke-linecap="round" class="Down"></path><path d="M1026 544L1025 949" stroke-width="10" stroke="url(&quot;#SvgjsLinearGradient1007&quot;)" stroke-linecap="round" class="Up"></path><path d="M1090 176L1089 -74" stroke-width="6" stroke="url(&quot;#SvgjsLinearGradient1006&quot;)" stroke-linecap="round" class="Up"></path><path d="M400 556L399 960" stroke-width="8" stroke="url(&quot;#SvgjsLinearGradient1005&quot;)" stroke-linecap="round" class="Down"></path><path d="M1151 247L1150 457" stroke-width="10" stroke="url(&quot;#SvgjsLinearGradient1006&quot;)" stroke-linecap="round" class="Up"></path><path d="M890 178L889 -62" stroke-width="10" stroke="url(&quot;#SvgjsLinearGradient1004&quot;)" stroke-linecap="round" class="Down"></path><path d="M261 463L260 180" stroke-width="10" stroke="url(&quot;#SvgjsLinearGradient1004&quot;)" stroke-linecap="round" class="Down"></path><path d="M0 82L-1 -98" stroke-width="6" stroke="url(&quot;#SvgjsLinearGradient1007&quot;)" stroke-linecap="round" class="Up"></path><path d="M1256 323L1255 636" stroke-width="10" stroke="url(&quot;#SvgjsLinearGradient1005&quot;)" stroke-linecap="round" class="Down"></path><path d="M686 91L685 235" stroke-width="8" stroke="url(&quot;#SvgjsLinearGradient1007&quot;)" stroke-linecap="round" class="Up"></path><path d="M388 517L387 753" stroke-width="10" stroke="url(&quot;#SvgjsLinearGradient1006&quot;)" stroke-linecap="round" class="Up"></path><path d="M90 82L89 -61" stroke-width="6" stroke="url(&quot;#SvgjsLinearGradient1007&quot;)" stroke-linecap="round" class="Up"></path><path d="M781 187L780 579" stroke-width="6" stroke="url(&quot;#SvgjsLinearGradient1005&quot;)" stroke-linecap="round" class="Down"></path><path d="M99 377L98 622" stroke-width="6" stroke="url(&quot;#SvgjsLinearGradient1005&quot;)" stroke-linecap="round" class="Down"></path><path d="M1049 420L1048 643" stroke-width="6" stroke="url(&quot;#SvgjsLinearGradient1005&quot;)" stroke-linecap="round" class="Down"></path></g><defs><mask id="SvgjsMask1003"><rect width="1440" height="560" fill="#ffffff"></rect></mask><linearGradient x1="0%" y1="0%" x2="0%" y2="100%" id="SvgjsLinearGradient1004"><stop stop-color="rgba(28, 83, 142, 0)" offset="0"></stop><stop stop-color="#1c538e" offset="1"></stop></linearGradient><linearGradient x1="0%" y1="0%" x2="0%" y2="100%" id="SvgjsLinearGradient1005"><stop stop-color="rgba(122, 124, 153, 0)" offset="0"></stop><stop stop-color="rgba(122, 124, 153, 1)" offset="1"></stop></linearGradient><linearGradient x1="0%" y1="100%" x2="0%" y2="0%" id="SvgjsLinearGradient1006"><stop stop-color="rgba(28, 83, 142, 0)" offset="0"></stop><stop stop-color="#1c538e" offset="1"></stop></linearGradient><linearGradient x1="0%" y1="100%" x2="0%" y2="0%" id="SvgjsLinearGradient1007"><stop stop-color="rgba(122, 124, 153, 0)" offset="0"></stop><stop stop-color="rgba(122, 124, 153, 1)" offset="1"></stop></linearGradient></defs></svg>